<svg width="56" height="28" viewBox="0 0 56 28" fill="none" xmlns="http://www.w3.org/2000/svg">
<g clip-path="url(#clip0_2364_63)">
<path d="M29.2052 4.29824L27.292 7.74006L39.5347 7.74134L41.5773 4.29688L29.2052 4.29824Z" fill="white"/>
<path d="M43.6173 0.856838L41.7041 4.29866L53.9468 4.29994L55.9894 0.855469L43.6173 0.856838Z" fill="white"/>
<path d="M41.8104 12.0058C39.8565 12.3532 38.8144 13.8294 38.8144 16.3912C38.8144 18.9964 40.2038 20.7332 42.2446 20.7332C43.2432 20.7332 44.1116 20.3858 45.9352 19.474V21.6016C43.7209 22.6436 42.4183 22.9042 40.6815 22.9042C38.7276 22.9042 37.3382 22.4266 36.2527 21.2542C35.1237 20.1253 34.5159 18.649 34.5159 16.9557C34.5159 13.265 37.2947 10.7031 41.3326 10.7031C43.9812 10.7031 45.8482 11.9623 45.8482 13.7425C45.8482 14.9148 44.9798 15.7398 43.7206 15.7398C43.0693 15.7398 42.5483 15.5227 41.8101 15.1319" fill="white"/>
<path d="M32.041 16.9556C33.8212 14.7412 34.4725 13.8294 34.4725 12.7439C34.4725 11.6584 33.6041 10.7031 32.3883 10.7031C31.6936 10.7031 31.0423 11.0939 30.7384 11.4413V16.0004C27.8293 19.9081 27.8293 19.9081 27.8293 19.9081V11.0506H25.0504L20.4479 18.6491V11.0506H18.8848L14.6731 12.0059V13.0914L16.9743 13.3085V22.7307H19.8835L24.3123 15.4362V22.7307H27.5688" fill="white"/>
<path d="M5.85875 21.2534H6.51002C8.85467 21.2534 10.1573 19.8206 10.1573 16.9549C10.1573 14.5668 9.11523 13.2642 7.16129 13.2642C6.90077 13.2642 6.51002 13.3077 5.85869 13.4379L5.85875 21.2534ZM5.85875 26.377C7.76922 26.8112 7.76922 26.8112 7.76922 26.8112V27.8967H0.257669V26.8112C1.99446 26.377 1.99446 26.377 1.99446 26.377V13.264H0.0839844V12.1785L4.64308 10.7891H5.85881V12.3522C7.98637 11.0496 8.72452 10.8325 9.85344 10.8325C12.3718 10.8325 14.2823 13.1771 14.2823 16.4336C14.2823 20.1677 11.7205 22.7293 7.81269 22.7293C7.37849 22.7293 6.64036 22.6859 5.85881 22.6425" fill="white"/>
</g>
<defs>
<clipPath id="clip0_2364_63">
<rect width="56" height="28" fill="white"/>
</clipPath>
</defs>
</svg>
