<svg width="87" height="26" viewBox="0 0 87 26" fill="none" xmlns="http://www.w3.org/2000/svg">
<g clip-path="url(#clip0_2364_66)">
<path d="M19.5317 6.37769V14.4233C19.5317 14.5537 19.4796 14.6788 19.3867 14.771C19.2939 14.8633 19.168 14.9151 19.0368 14.9151H16.4804C16.3492 14.915 16.2233 14.8632 16.1305 14.771C16.0377 14.6788 15.9855 14.5537 15.9855 14.4233V1.3367C15.9855 1.20628 16.0376 1.08121 16.1304 0.988988C16.2232 0.896769 16.3491 0.84496 16.4804 0.84496H18.846C18.9773 0.84496 19.1032 0.896769 19.196 0.988988C19.2888 1.08121 19.341 1.20628 19.341 1.3367V3.17964C19.341 3.17964 20.1866 0.55074 22.6963 0.55074C22.6963 0.55074 25.1787 0.252617 26.188 2.98993C26.188 2.98993 27.0336 0.55074 29.5978 0.55074C29.5978 0.55074 33.4112 0.325468 33.4112 4.24573L33.4402 6.40479V14.4504C33.4402 14.5808 33.3881 14.7059 33.2953 14.7981C33.2024 14.8904 33.0765 14.9422 32.9453 14.9422H30.3887C30.2574 14.9421 30.1316 14.8903 30.0388 14.7981C29.946 14.7059 29.8938 14.5808 29.8938 14.4504L29.8704 5.67303C29.9431 3.68548 28.3247 3.83009 28.3247 3.83009C26.2879 3.8663 26.4839 6.40479 26.4839 6.40479V14.4504C26.4839 14.5808 26.4317 14.7059 26.3389 14.7981C26.2461 14.8904 26.1202 14.9422 25.9889 14.9422H23.4326C23.3013 14.9421 23.1755 14.8903 23.0827 14.7981C22.9899 14.7059 22.9377 14.5808 22.9376 14.4504V5.87164C22.9376 5.87164 23.0871 3.81188 21.2684 3.81188C21.2686 3.81188 19.4682 3.57707 19.5317 6.37769ZM85.4276 6.35362V14.399C85.4276 14.5294 85.3754 14.6545 85.2826 14.7467C85.1898 14.8389 85.0639 14.8907 84.9327 14.8908L82.274 14.9419C82.1427 14.9419 82.0169 14.8901 81.9241 14.7979C81.8313 14.7056 81.7791 14.5806 81.779 14.4502V5.87164C81.779 5.87164 81.9285 3.81188 80.11 3.81188C80.11 3.81188 78.3731 3.72689 78.3731 6.95637V14.4231C78.373 14.5535 78.3209 14.6785 78.2281 14.7708C78.1353 14.863 78.0094 14.9148 77.8781 14.9148H75.3216C75.1903 14.9148 75.0645 14.863 74.9717 14.7708C74.8788 14.6785 74.8267 14.5535 74.8266 14.4231V1.3367C74.8267 1.2063 74.8788 1.08126 74.9717 0.989051C75.0645 0.896845 75.1903 0.845018 75.3216 0.84496H77.6872C77.8185 0.84496 77.9444 0.896769 78.0372 0.988988C78.13 1.08121 78.1821 1.20628 78.1821 1.3367V3.17964C78.1821 3.17964 79.0278 0.55074 81.5374 0.55074C81.5374 0.55074 84.2258 0.14551 85.1313 2.93898C85.1315 2.93876 85.4276 3.51506 85.4276 6.35362ZM66.9697 0.496536C63.7006 0.496536 61.0501 3.23385 61.0501 7.8412C61.0501 11.8976 63.0961 15.1859 66.9697 15.1859C70.625 15.1859 72.8892 11.8976 72.8892 7.8412C72.8892 3.31515 70.239 0.496536 66.9697 0.496536ZM69.033 8.00381C69.033 9.73834 68.8148 10.6598 68.8148 10.6598C68.5043 12.4934 67.1645 12.496 66.967 12.4863C66.7538 12.4947 65.4028 12.4757 65.1232 10.6598C65.1232 10.6598 64.905 9.73834 64.905 8.00381V7.7148C64.905 5.98026 65.1232 5.05879 65.1232 5.05879C65.4028 3.24295 66.754 3.22387 66.967 3.23211C67.1645 3.22236 68.5043 3.22474 68.8148 5.05879C68.8148 5.05879 69.033 5.98026 69.033 7.7148V8.00381ZM59.5664 3.16143V1.2838C59.5663 1.1534 59.5142 1.02835 59.4214 0.936148C59.3286 0.843941 59.2027 0.792115 59.0714 0.792057H50.6215C50.4903 0.792057 50.3644 0.843865 50.2716 0.936085C50.1787 1.0283 50.1266 1.15338 50.1266 1.2838V3.1469C50.1267 3.2773 50.1788 3.40235 50.2716 3.49455C50.3644 3.58676 50.4903 3.63859 50.6215 3.63864H55.0292L49.8121 11.1578C49.8121 11.1578 49.6066 11.4627 49.6133 11.7994V14.0866C49.6133 14.0866 49.5793 14.8708 50.4745 14.4157C50.4745 14.4157 52.0645 13.4613 54.7306 13.4613C54.7306 13.4613 57.3636 13.4288 59.119 14.4979C59.119 14.4979 59.8477 14.827 59.8477 14.1033V12.1125C59.8477 12.1125 59.9138 11.5856 59.2183 11.2567C59.2183 11.2567 57.1979 10.1544 54.5484 10.3352L59.5664 3.16143ZM14.0124 12.5747L13.2122 11.3645C12.9575 10.9126 12.9758 10.4066 12.9758 10.4066V4.82376C13.085 -0.000407733 7.70185 0.41523 7.70185 0.41523C2.91648 0.41523 2.20963 4.11521 2.20963 4.11521C2.01017 4.8591 2.59023 4.8771 2.59023 4.8771L4.92857 5.11278C4.92857 5.11278 5.32728 5.20341 5.4724 4.73183C5.4724 4.73183 5.78033 3.11763 7.50239 3.11763C9.37612 3.11763 9.3567 4.71535 9.3567 4.71535V6.0529C5.61622 6.17713 3.88281 7.20875 3.88281 7.20875C1.57327 8.50965 1.71861 11.0934 1.71861 11.0934C1.71861 15.3032 5.75588 15.1223 5.75588 15.1223C8.33821 15.1223 9.86583 13.2434 9.86583 13.2434C10.3204 14.0387 11.1571 14.7971 11.1571 14.7971C11.5757 15.2481 12.0119 14.8695 12.0119 14.8695L13.9033 13.2616C14.3214 12.9542 14.0124 12.5747 14.0124 12.5747ZM7.01617 12.5227C5.8015 12.5227 5.34998 11.3235 5.55162 10.1449C5.75348 8.96626 6.80187 8.04002 9.35691 8.06712V8.7837C9.44748 11.9141 8.02723 12.5227 7.01617 12.5227ZM47.9836 12.5747L47.1835 11.3645C46.9289 10.9126 46.947 10.4066 46.947 10.4066V4.82376C47.0561 -0.000407733 41.673 0.41523 41.673 0.41523C36.8876 0.41523 36.1808 4.11521 36.1808 4.11521C35.9813 4.8591 36.5614 4.8771 36.5614 4.8771L38.8997 5.11278C38.8997 5.11278 39.2984 5.20341 39.4435 4.73183C39.4435 4.73183 39.7515 3.11763 41.4735 3.11763C43.3473 3.11763 43.3278 4.71535 43.3278 4.71535V6.0529C39.5876 6.17713 37.8539 7.20875 37.8539 7.20875C35.5444 8.50965 35.6897 11.0934 35.6897 11.0934C35.6897 15.3032 39.727 15.1223 39.727 15.1223C42.3093 15.1223 43.837 13.2434 43.837 13.2434C44.2918 14.0387 45.128 14.7971 45.128 14.7971C45.5466 15.2481 45.983 14.8695 45.983 14.8695L47.8742 13.2616C48.2926 12.9542 47.9836 12.5747 47.9836 12.5747ZM40.9873 12.5227C39.7726 12.5227 39.3211 11.3235 39.5228 10.1449C39.7246 8.96626 40.773 8.04002 43.3278 8.06712V8.7837C43.4186 11.9141 41.9986 12.5227 40.9873 12.5227Z" fill="white"/>
<path d="M54.4195 23.1416C54.4195 23.1416 54.2056 23.5113 54.4683 23.5939C54.4683 23.5939 54.7651 23.709 55.1353 23.3678C55.1353 23.3678 57.8346 21.025 57.8996 16.7598C57.8996 16.7598 57.9195 16.2271 57.7043 16.0814C57.7043 16.0814 56.8586 15.3382 53.8178 15.5643C53.8178 15.5643 51.1672 15.7421 49.7201 17.0185C49.7201 17.0185 49.59 17.1315 49.59 17.2767C49.59 17.2767 49.5588 17.5905 50.3543 17.4545C50.3543 17.4545 53.0047 17.0827 54.582 17.2767C54.582 17.2767 55.3954 17.3736 55.623 17.6486C55.623 17.6486 55.9971 17.9556 55.8017 18.9731C55.8017 18.9735 55.2649 21.5584 54.4195 23.1416Z" fill="white"/>
<path d="M53.8853 19.0489C53.8853 19.0489 54.2812 19.5584 53.6425 19.9979C53.6425 19.9979 46.819 25.4205 35.3619 25.4205C35.3619 25.4205 23.5683 25.9986 13.7206 17.1091C13.7206 17.1091 13.3754 16.8079 13.5897 16.528C13.5897 16.528 13.7813 16.2704 14.2773 16.5506C14.2773 16.5506 23.541 22.2856 35.7074 22.2856C35.7074 22.2856 44.1638 22.6108 52.8385 18.9249C52.8385 18.9249 53.5296 18.5691 53.8853 19.0489Z" fill="white"/>
</g>
<defs>
<clipPath id="clip0_2364_66">
<rect width="87" height="26" fill="white"/>
</clipPath>
</defs>
</svg>
