<svg width="89" height="32" viewBox="0 0 89 32" fill="none" xmlns="http://www.w3.org/2000/svg">
<path d="M59.3712 1.48828C59.0998 1.4886 58.8312 1.54211 58.5806 1.64576C58.3301 1.7494 58.1025 1.90115 57.9109 2.09233C57.5319 2.4695 57.3039 3.00217 57.3039 3.54906V28.4166C57.3039 28.9635 57.5224 29.4867 57.9109 29.8733C58.1028 30.0643 58.3305 30.2158 58.5813 30.3192C58.832 30.4226 59.1007 30.4758 59.3721 30.4758C59.6435 30.4758 59.9122 30.4226 60.1629 30.3192C60.4136 30.2158 60.6414 30.0643 60.8332 29.8733C61.2123 29.4961 61.4403 28.9635 61.4403 28.4166V3.54906C61.4403 3.00217 61.2217 2.47893 60.8332 2.09233C60.6414 1.90093 60.4135 1.74906 60.1627 1.6454C59.9118 1.54175 59.6428 1.48836 59.3712 1.48828ZM12.9992 7.61722C11.0843 7.5663 9.18184 7.98022 7.45807 8.83085C5.48806 9.803 3.83187 11.3084 2.67393 13.1697C1.516 15.031 0.905446 17.1792 0.910184 19.3687C0.914921 21.5581 1.53251 23.7045 2.69614 25.562C3.85976 27.4196 5.52224 28.9161 7.49509 29.8807C9.46795 30.8453 11.6737 31.2421 13.8598 31.0243C16.0473 30.8061 18.1297 29.9824 19.8709 28.6468C20.1073 28.4622 20.2995 28.2276 20.4336 27.9601C20.5677 27.6926 20.6404 27.3987 20.6464 27.0998C20.6525 26.8005 20.5915 26.5036 20.4679 26.2306C20.3444 25.9576 20.1613 25.7154 19.932 25.5215C19.5757 25.2141 19.1251 25.0376 18.6532 25.0206C18.1813 25.0036 17.72 25.1485 17.3428 25.4294C16.2058 26.295 14.8472 26.8259 13.423 26.9635C11.9988 27.1012 10.565 26.8402 9.2829 26.2085C8.00083 25.5767 6.91968 24.6024 6.16257 23.3926C5.40586 22.1823 5.00372 20.7858 5.00143 19.3604C4.99914 17.9349 5.39678 16.5372 6.14958 15.3244C6.90173 14.1121 7.97925 13.133 9.26067 12.4975C10.5418 11.863 11.9747 11.5985 13.3989 11.7314C14.8231 11.8644 16.1825 12.3917 17.3225 13.2544C17.6957 13.5405 18.1563 13.6904 18.6273 13.679C19.0982 13.6676 19.551 13.4956 19.9098 13.1918C20.1419 12.9938 20.327 12.748 20.4502 12.4718C20.5734 12.1955 20.6354 11.8932 20.6297 11.5896C20.624 11.286 20.5478 10.9891 20.4113 10.7185C20.2749 10.4479 20.0792 10.209 19.8395 10.0242C18.0934 8.69423 16.0077 7.87761 13.819 7.66695C13.5454 7.64055 13.2727 7.62448 12.9992 7.61722ZM42.5202 7.61722C42.1908 7.62288 41.8578 7.64202 41.5227 7.67615C39.7149 7.86653 37.976 8.47104 36.4424 9.44227C34.9081 10.4133 33.6204 11.7243 32.6799 13.2729C31.7396 14.8228 31.1721 16.5681 31.0216 18.3723C30.87 20.1771 31.1401 21.9941 31.81 23.6762C32.4801 25.359 33.5322 26.8648 34.8841 28.0759C36.235 29.2862 37.849 30.1693 39.5998 30.656C41.3499 31.1425 43.2013 31.2174 44.9761 30.877C46.751 30.5366 48.441 29.7903 49.888 28.6947C50.1315 28.5087 50.3301 28.2708 50.4691 27.9985C50.6084 27.727 50.6855 27.4274 50.6931 27.1219C50.7085 26.5801 50.5073 26.0544 50.1336 25.6601C49.7599 25.2658 49.2442 25.0351 48.6998 25.0188C48.2323 25.0039 47.7738 25.1488 47.4006 25.4294C45.9692 26.5295 44.1896 27.0841 42.3833 26.993C40.9145 26.9176 39.4981 26.4236 38.3098 25.5731C37.111 24.7227 36.1807 23.5497 35.6281 22.1919C35.5527 22.0088 35.548 21.8044 35.615 21.618C35.682 21.4317 35.8158 21.2766 35.9908 21.1826C36.1069 21.1207 36.2367 21.0885 36.3684 21.0887H50.719C51.1776 21.0906 51.6325 21.0008 52.0571 20.8272C52.4816 20.6537 52.8684 20.3983 53.1934 20.0758C53.5184 19.7534 53.776 19.3712 53.9522 18.9488C54.1287 18.5268 54.2199 18.0743 54.2206 17.6173C54.1921 16.6366 53.9743 15.6696 53.5821 14.7701L53.5691 14.7663C51.7071 10.571 47.4614 7.53043 42.5202 7.61722ZM25.8063 8.19549C24.6663 8.19549 23.7408 9.11727 23.7408 10.2544V28.4147C23.7408 29.5519 24.6663 30.4737 25.8063 30.4737C26.9462 30.4737 27.8717 29.5519 27.8717 28.4147V10.2544C27.8717 9.11727 26.9462 8.19549 25.8063 8.19549ZM67.3793 11.6743C66.3672 12.8448 65.5979 14.203 65.1158 15.6707C64.6318 17.1377 64.4431 18.6853 64.5606 20.225C64.6781 21.7648 65.1015 23.2673 65.7932 24.6449C66.4944 26.0215 67.4617 27.2469 68.6396 28.2508C69.8175 29.255 71.1831 30.0177 72.6576 30.4958C74.132 30.9737 75.6869 31.1564 77.2326 31.0335C78.7771 30.9109 80.2836 30.4847 81.6632 29.7794C83.0431 29.0748 84.2695 28.106 85.2722 26.9285L82.1444 24.2729C81.4251 25.1275 80.5261 25.8146 79.5108 26.2858C78.5007 26.7546 77.4024 26.9968 76.2887 26.9985C74.8229 26.9955 73.3886 26.5743 72.156 25.7849C70.9175 24.9909 69.934 23.8595 69.3133 22.5234C68.7025 21.1877 68.4902 19.7055 68.7018 18.2532C68.9135 16.8009 69.5401 15.4398 70.507 14.3318L67.3793 11.6743ZM42.7423 11.7001C44.2787 11.7006 45.7797 12.1599 47.0508 13.0187C48.323 13.8782 49.3068 15.0977 49.875 16.5196C49.9228 16.6407 49.9406 16.7715 49.9269 16.9008C49.9129 17.0305 49.8673 17.1548 49.7941 17.2629C49.7209 17.3711 49.6222 17.4598 49.5068 17.5215C49.3912 17.5827 49.2618 17.6154 49.1311 17.6154H36.3536C36.2224 17.6157 36.0933 17.5834 35.9779 17.5215C35.8623 17.4592 35.7631 17.3702 35.6892 17.2636C35.6153 17.1571 35.571 17.0309 35.5578 16.9008C35.5441 16.7715 35.5619 16.6407 35.6096 16.5196C36.1778 15.0977 37.1616 13.8782 38.4338 13.0187C39.7055 12.1701 41.2063 11.7001 42.7423 11.7001Z" fill="black"/>
<path d="M25.8056 0.914062C25.1016 0.914062 24.4283 1.19251 23.9327 1.68754C23.4356 2.18307 23.1566 2.85479 23.1572 3.55496C23.1708 4.2456 23.4558 4.90345 23.9512 5.38738C24.4468 5.87015 25.112 6.14244 25.8056 6.14244C26.4993 6.14244 27.1663 5.87109 27.6619 5.38738C28.1573 4.90345 28.4423 4.2456 28.4559 3.55496H28.454C28.4546 2.8548 28.1757 2.18308 27.6786 1.68754C27.182 1.19251 26.5097 0.914062 25.8056 0.914062ZM76.3085 7.60838C74.617 7.6065 72.9446 7.96858 71.4096 8.66916C69.8713 9.37017 68.5032 10.3935 67.399 11.6692L70.5157 14.3266C71.8442 12.802 73.7238 11.8614 75.744 11.7134C77.7642 11.5653 79.7619 12.2167 81.3017 13.5292C82.8415 14.8417 83.7982 16.7077 83.965 18.7189C84.1298 20.7303 83.49 22.7252 82.1845 24.2696L85.303 26.9252C86.7528 25.2167 87.6844 23.13 87.9847 20.9123C88.2845 18.6947 87.9416 16.438 86.9965 14.4077C86.0522 12.3778 84.5445 10.659 82.6509 9.45369C80.7529 8.25714 78.5542 7.60838 76.3085 7.60838Z" fill="black"/>
</svg>
