<svg width="54" height="54" viewBox="0 0 54 54" fill="none" xmlns="http://www.w3.org/2000/svg">
<mask id="mask0_2625_206" style="mask-type:luminance" maskUnits="userSpaceOnUse" x="0" y="0" width="54" height="54">
<path d="M0 -1.79654e-06V54H53.7437V-1.79654e-06" fill="white"/>
</mask>
<g mask="url(#mask0_2625_206)">
<path d="M0 2.64976C0 1.18717 1.18614 -1.79654e-06 2.65025 -1.79654e-06H51.0658C52.5299 -1.79654e-06 53.7171 1.18717 53.7171 2.64976L53.7437 51.3487C53.7437 52.8118 52.5576 54 51.0934 54H2.65025C1.18614 54 0 52.8118 0 51.3487V2.64976Z" fill="#1378C7"/>
<path d="M43.1515 45.154C41.4411 45.3657 40.5982 45.1313 40.5982 45.1313C39.6841 45.0838 39.6604 44.4061 39.6604 44.4061V40.2828C42.5183 40.1978 43.1515 40.3155 43.1515 40.3155C43.8302 40.3382 44.0181 40.5251 44.0181 40.5251L44.3218 38.7167C44.3218 38.7167 44.1823 38.8345 42.3076 38.788C42.3076 38.788 42.823 38.788 39.6604 38.7642L39.6555 35.1143C39.6485 34.5287 40.341 34.5619 40.341 34.5619C43.1743 34.4912 43.7837 34.6554 43.7837 34.6554C44.4395 34.6554 44.6265 34.9976 44.6265 34.9976L44.9312 33.5216C45.0489 33.2288 44.2753 33.2634 44.2753 33.2634H43.1743C42.3769 33.3455 42.4016 32.4903 42.4016 32.4903C42.4016 30.2313 42.4016 28.2988 42.4026 26.7045C42.4037 22.8449 42.4056 20.8956 42.4056 20.8956C42.4521 20.0052 42.9398 19.9443 42.9398 19.9443H41.8397C46.0323 7.05947 46.5477 6.83986 46.5477 6.83986C44.58 7.00417 43.7372 6.86317 43.7372 6.86317C44.486 7.14367 43.9004 8.47865 43.9004 8.47865C42.5648 13.0708 41.4173 15.9754 41.4173 15.9754C39.6841 11.7126 39.2389 10.5878 39.2389 10.5878C37.9271 7.19161 38.0201 6.76919 38.0201 6.76919C36.3345 6.95619 35.2333 6.76919 35.2333 6.76919C35.7023 6.95619 35.4114 7.8935 35.4114 7.8935C34.0522 12.5085 32.9837 15.3432 32.9837 15.3432C30.4309 10.3296 29.648 7.75351 29.648 7.75351C29.2973 6.67567 28.805 6.81667 28.805 6.81667C20.8167 6.90967 19.3284 6.79336 19.3284 6.79336C20.1944 6.93285 20.1247 8.87788 20.1247 8.87788L20.1287 17.5918L15.0181 9.46347C13.8938 7.6363 13.9868 6.83986 13.9868 6.83986H10.051C10.6841 7.26137 10.6598 8.76053 10.6598 8.76053C10.9448 13.0214 10.5901 18.9506 10.5901 18.9506C10.5203 20.0749 9.41928 20.0749 9.41928 20.0749H12.534C13.7761 20.1926 12.9564 21.9491 12.9564 21.9491L10.6366 26.0487L8.52843 23.0734C6.51375 19.9696 5.46022 19.9958 5.46022 19.9958H2.22778C3.82004 20.2065 6.65426 23.9638 6.65426 23.9638L8.38803 26.3538C8.46512 26.4746 8.53492 26.5933 8.59823 26.7045C9.27877 27.957 9.16157 28.8597 9.16157 28.8597V31.7409C9.11416 32.983 7.98981 33.3109 7.98981 33.3109L9.79369 33.2877C11.1055 33.2169 11.1525 35.2084 11.1525 35.2084C11.2222 40.2205 11.1525 44.2972 11.1525 44.2972C11.1757 46.2412 10.2152 46.5459 10.2152 46.5459C12.6982 46.4054 14.9004 46.5686 14.9004 46.5686C17.1613 46.8031 17.4774 46.6112 17.4774 46.6112C18.0275 46.4875 18.063 46.1244 18.063 46.1244L18.3435 44.5218C17.8988 45.2104 17.0792 45.3054 17.0792 45.3054C16.3299 45.4576 14.1743 45.337 14.1743 45.337C14.1743 45.337 13.1904 45.2668 13.2369 44.6346C13.2369 44.6346 13.0499 38.9334 13.3081 34.2002C13.3081 34.2002 13.2839 33.1467 14.5492 33.0527H12.3001C11.1525 32.8885 11.1525 32.0921 11.1525 32.0921V29.0006C11.1085 28.3661 11.5838 27.3609 11.942 26.7045C12.1531 26.3157 12.3233 26.0487 12.3233 26.0487C15.7199 20.0982 16.2122 19.9819 16.2122 19.9819H13.5653C12.4875 19.8874 12.4034 18.9037 12.4034 18.9037V9.69737C18.3065 18.6221 19.2106 20.2624 19.2106 20.2624C16.7048 20.7314 15.9074 22.7697 15.9074 22.7697C15.2407 24.1364 15.1789 25.8473 15.1991 26.7045C15.207 27.0746 15.2288 27.2906 15.2288 27.2906C15.2753 30.9677 16.4941 31.8814 16.4941 31.8814C17.3369 32.8884 19.1409 33.17 19.1409 33.17C20.1247 33.4044 20.1014 35.0673 20.1014 35.0673C20.1014 37.4336 20.1014 39.7525 20.1014 39.7525C20.0782 44.7186 19.7033 45.6318 19.7033 45.6318C19.5158 46.4994 18.906 46.5459 18.906 46.5459C21.6462 46.3352 23.1454 46.6398 23.1454 46.6398C22.3026 46.2887 22.3026 45.5853 22.3026 45.5853C22.1849 39.8227 22.3026 35.0911 22.3026 35.0911C22.2784 33.5681 23.2394 33.1936 23.2394 33.1936C25.441 32.6312 25.7922 31.8349 25.7922 31.8349C27.1302 30.4405 27.1856 27.7348 27.1515 26.7045C27.1426 26.4003 27.1278 26.2361 27.1278 26.2361C27.1396 23.3895 25.769 21.8789 25.769 21.8789C24.8322 20.7081 22.9347 20.1456 22.9347 20.1456L27.7609 20.1689C29.1657 20.3089 29.1424 22.4645 29.1424 22.4645C29.2928 23.8618 29.3328 25.3606 29.3225 26.7045C29.3026 29.1396 29.1192 31.0855 29.1192 31.0855C28.9317 33.2169 27.9948 33.0527 27.9948 33.0527L26.7761 33.0487C27.5734 33.2827 27.4557 35.2549 27.4557 35.2549C27.5967 40.0335 27.245 45.2103 27.245 45.2103C27.151 46.3579 26.3779 46.6161 26.3779 46.6161C28.6503 46.4054 30.197 46.6161 30.197 46.6161C29.4941 46.4529 29.5174 44.9531 29.5174 44.9531L29.4709 40.5954C32.4214 40.4559 33.3123 40.6439 33.3123 40.6439C33.8969 40.6202 34.1323 40.8536 34.1323 40.8536L34.5072 38.9374C34.2491 39.0779 32.4461 39.0313 32.4461 39.0313H29.4941V35.0208C29.5174 34.5994 30.197 34.6227 30.197 34.6227C33.1242 34.4589 33.7574 34.6785 33.7574 34.6785C34.4133 34.725 34.4598 34.9269 34.4598 34.9269L34.7179 33.6626C34.9049 33.1466 34.3203 33.2452 34.3203 33.2452L32.5623 33.2401C31.2738 33.3342 31.4381 32.2331 31.4381 32.2331V26.7045V21.9258C31.4613 21.2705 31.9999 21.1993 31.9999 21.1993C33.523 20.8956 34.4825 21.2225 34.4825 21.2225C35.6321 21.5326 35.6786 22.6519 35.6786 22.6519C35.9823 23.9173 34.9752 24.9011 34.9752 24.9011C34.2956 25.5808 33.1242 25.5565 33.1242 25.5565C32.6088 25.463 32.867 25.7915 32.867 25.7915C32.9719 26.0808 33.0887 26.385 33.2123 26.7045C34.3044 29.4474 35.9941 32.8653 35.9941 32.8653C36.3107 33.3574 36.8498 33.2877 36.8498 33.2877C37.4236 33.3455 37.389 34.1538 37.389 34.1538C37.482 39.6832 37.294 44.6484 37.294 44.6484C37.1773 46.4054 36.4987 46.5686 36.4987 46.5686C39.5664 46.3817 40.4102 46.5924 40.4102 46.5924C44.2516 46.8278 44.393 46.6398 44.393 46.6398C44.8144 46.6636 44.8847 45.796 44.8847 45.796L45.2369 44.1558C44.8847 45.2578 43.1515 45.154 43.1515 45.154Z" fill="white"/>
<path d="M44.9994 25.291C44.9994 25.291 46.9245 23.0235 48.7517 21.2662C48.7517 21.2662 49.7826 20.1418 50.3445 19.9311H48.4708C48.4708 19.9311 47.7447 19.9074 47.3459 20.3525C47.3459 20.3525 45.59 22.292 42.6143 25.8064C42.6143 25.8064 42.8478 25.8336 47.2995 32.7214C47.2995 32.7214 47.7209 33.3298 48.2363 33.26H50.8925C50.8925 33.26 49.7826 32.857 44.9994 25.291Z" fill="white"/>
<path d="M23.241 8.16959C25.7938 8.05239 26.2395 8.16959 26.2395 8.16959C27.3401 8.1231 27.7145 9.19992 27.7145 9.19992C30.2683 14.2368 31.4861 17.5168 31.4861 17.5168C32.1657 19.25 32.0014 19.6016 32.0014 19.6016C32.0014 19.9285 31.6389 19.9766 31.6389 19.9766H28.6993C28.9447 17.6221 28.9332 17.3332 28.9332 17.3332C28.4411 18.2117 28.0894 18.2706 28.0894 18.2706C27.293 18.692 23.6159 18.5986 23.6159 18.5986C22.5381 18.5866 22.4208 17.7081 22.4208 17.7081C22.3506 15.6 22.4208 13.9326 22.4208 13.9326C22.4673 13.7916 22.6078 13.7916 22.6078 13.7916C26.6376 13.6512 26.7079 13.9558 26.7079 13.9558L26.9418 12.0342C26.5436 12.1752 26.1455 12.2034 26.1455 12.2034C23.8964 12.3211 22.4208 12.246 22.4208 12.246V9.31715C22.3738 8.16961 23.241 8.16959 23.241 8.16959Z" fill="#1378C7"/>
<path d="M17.5261 26.1698C17.385 29.5428 18.2057 30.8822 18.2057 30.8822C19.2122 32.6813 20.8515 32.6541 20.8515 32.6541C23.3346 32.7288 24.1215 30.8358 24.1215 30.8358C24.8714 29.1683 24.7403 26.1698 24.7403 26.1698C24.682 23.6392 23.9197 22.5377 23.9197 22.5377C23.0417 20.9332 21.2729 21.039 21.2729 21.039C19.1657 20.8991 18.2196 22.5377 18.2196 22.5377C17.4791 23.6161 17.5261 26.1698 17.5261 26.1698Z" fill="#1378C7"/>
<path d="M35.0954 25.9126C36.7821 29.6378 38.3749 31.9566 38.3749 31.9566C39.3582 33.491 39.8865 33.2338 39.8865 33.2338C40.1317 33.2338 40.1219 32.5897 40.1219 32.5897C40.4275 26.8965 40.1456 21.9307 40.1456 21.9307C39.9814 20.0566 39.3582 19.9389 39.3582 19.9389H40.3663C40.3187 19.4245 40.1555 19.0495 40.1555 19.0495C37.9761 12.7479 36.6881 9.95966 36.6881 9.95966C34.9074 14.95 33.7717 18.9907 33.7717 18.9907C33.6659 19.4244 33.5967 19.9869 33.5967 19.9869C35.962 19.9389 36.4774 20.3381 36.4774 20.3381C37.9178 20.9346 38 22.7033 38 22.7033C38.0465 24.3668 37.0858 25.0465 37.0858 25.0465C36.3132 25.7731 35.0954 25.9126 35.0954 25.9126Z" fill="#1378C7"/>
</g>
</svg>
