<svg width="381" height="14" viewBox="0 0 381 14" fill="none" xmlns="http://www.w3.org/2000/svg">
<path d="M376.668 4.37992C374.54 4.18509 371.771 4.22821 369.641 4.3421C368.967 4.37694 369.305 4.65444 368.845 4.69052C367.929 4.76008 367.102 4.59919 366.223 4.68891C365.926 4.7197 366.279 5.15315 365.966 5.17578C364.273 5.29744 362.684 5.12899 360.96 5.15053C358.588 5.18126 356.225 5.18779 353.858 5.17737C347.856 5.15083 341.841 4.97584 335.702 4.80552C332.885 4.72665 329.449 4.93202 326.551 4.61545C326.213 4.57814 326.434 4.22057 326.372 4.1869C325.384 3.67026 325.682 4.43058 325.015 4.49505C322.372 4.74903 319.453 4.63119 316.935 4.35813C315.864 4.24094 316.98 3.56591 315.876 3.91999C315.799 3.94381 316.052 4.34876 315.754 4.37514C315.08 4.43418 313.819 4.29882 313.297 4.30293C312.296 4.31302 312.134 4.30068 311.187 4.25635C309.898 4.1995 308.356 4.31514 306.97 4.15579C306.675 4.12068 307.087 3.73995 306.619 3.64782C306.156 3.55599 304.897 3.52627 304.475 3.5997C304.051 3.67305 304.214 3.99696 304.136 4.0654C303.493 4.64368 302.087 3.72749 301.908 3.69771C298.529 3.17314 295.604 3.51302 292.421 3.36601C291.941 3.34366 291.461 3.31555 290.987 3.28445C289.004 3.15518 286.976 2.96895 285.126 2.91171C282.381 2.82855 280.054 2.96046 277.388 2.83724C277.107 2.82477 277.451 2.36386 277.108 2.34773C273.457 2.17672 269.833 2.13862 266.194 2.37808C265.833 2.40261 266.289 2.82669 265.927 2.87596C263.702 3.16781 260.142 3.91514 258.871 2.08716C257.371 2.1283 255.527 2.16564 254.179 2.50327C253.307 2.72049 254.148 3.18784 253.071 2.97465C252.827 2.92708 253.15 2.53812 252.789 2.49673C251.293 2.32337 249.612 2.41951 248.115 2.18634C247.813 2.13804 247.903 1.78569 247.818 1.72029C247.102 1.19007 245.859 2.01942 245.604 2.07646C243.568 2.49917 242.09 2.28793 240.243 2.26234C239.807 2.25644 240.332 1.79134 239.912 1.76857C239.569 1.75101 239.221 1.73601 238.869 1.72383C237.053 1.65997 235.163 1.67847 233.346 1.81906C232.87 1.85735 233.296 2.27125 233.072 2.31034C232.085 2.47785 231.88 1.70842 230.914 1.85378C230.71 1.88342 230.817 2.23248 230.779 2.26978C230.178 2.85528 229.709 1.99831 229.561 1.97654C227.702 1.68237 226.482 2.54137 224.673 2.37825C224.455 2.35781 224.957 1.92948 224.343 1.89883C220.296 1.69282 216.009 1.72259 211.988 1.98808C211.363 2.02876 211.802 2.36776 211.762 2.40754C211.108 3.02862 210.709 2.16932 210.505 2.13294C208.91 1.86832 207.395 2.54949 206.322 1.51323C199.529 1.71986 192.767 1.00574 186.011 1.76901C185.925 1.77769 186.069 2.1998 185.898 2.21531C183.835 2.40644 184.244 1.76395 182.898 0.938712C182.559 0.731464 181.495 1.67033 181.402 1.73882C181.06 1.99126 181.395 2.62182 181.282 2.66969C180.342 3.04463 180.537 0.9872 179.278 0.959658C179.239 0.962254 179.396 1.34507 179.29 1.38053C178.959 1.49192 178.637 1.33426 178.314 1.45798C177.572 1.74441 177.294 2.74022 176.181 2.13348C176.04 2.05482 176.282 0.890545 175.157 0.921821C174.707 0.935251 172.733 0.87319 172.171 0.937033C171.614 1.00088 171.987 1.38566 171.947 1.40113C170.441 1.86743 171.004 2.08592 170.241 2.80746C169.479 3.52625 169.723 1.77848 169.423 1.57647C169.12 1.37493 168.012 1.76258 167.74 1.89975C167.468 2.03698 167.799 2.28344 167.558 2.35925C165.962 2.85412 166.881 1.47481 166.365 1.18568C165.152 0.501251 164.151 1.78011 163.026 1.88378C162.721 1.91176 162.976 1.62104 162.706 1.58766C161.639 1.45945 160.966 1.85093 159.755 1.45357C159.554 1.38875 158.593 0.587009 157.93 1.14671C157.837 1.22748 158.089 1.55671 157.627 1.6196C156.934 1.714 155.705 1.75915 154.973 1.63562C154.426 1.54411 155.065 1.02363 154.372 1.17502C154.064 1.24266 154.625 1.5666 154.048 1.66765C153.471 1.76866 152.031 1.72507 151.475 1.7028C150.918 1.68025 151.232 1.28183 151.187 1.25363C150.917 1.09177 149.858 0.87467 149.766 0.873252C145.042 0.72649 140.666 1.32013 136.084 1.00406C135.718 0.979723 135.97 0.557705 135.915 0.549592C134.663 0.346154 135.628 1.50028 134.751 1.86311C134.894 0.99945 134.374 1.14616 133.521 1.03459C133.111 0.980156 133.342 0.649123 133.305 0.614063C132.68 0.0923922 132.23 0.741957 132.116 0.874408C131.693 1.36157 131.26 0.768085 130.979 1.09379C130.707 1.40614 131.279 1.88253 130.581 1.89468C130.556 1.89508 130.528 1.89491 130.499 1.89415C130.265 1.57955 130.916 0.781366 130.269 0.637733C127.9 0.0954657 123.41 0.6504 121.488 0.685306C119.544 0.71924 118.936 0.652958 117.822 0.748357C115.782 0.921461 116.561 0.331406 115.294 0.0391438C114.033 -0.252198 114.633 1.23505 114.447 1.55073C114.267 1.8664 114.09 1.537 113.857 1.70901C113.631 1.88107 114.113 2.10296 113.586 2.16241C113.066 2.22162 111.656 1.64176 111.478 1.30785C111.094 0.600008 111.761 -0.134116 110.366 0.114297C110.286 0.129109 110.54 0.520051 110.237 0.557055C107.846 0.838411 105.348 0.850944 102.95 1.1361C102.622 1.17595 102.919 1.60613 102.729 1.63426C100.74 1.93189 101.442 1.1954 100.337 0.401035C100.6 1.47621 100.005 2.1427 98.4954 2.18186C97.5882 2.20671 97.7315 1.73249 97.1359 1.41539C96.958 1.31972 96.3185 1.66075 96.1985 1.44261C95.7945 0.729931 96.3761 -0.0993451 94.8231 0.270753C94.755 0.288218 94.9857 0.677678 94.7494 0.709047C93.2255 0.914687 93.012 0.164326 91.3572 0.130437C90.0603 0.104041 87.7661 0.650515 86.2992 0.778888C86.3259 1.21002 86.1642 1.45891 85.9124 1.56405C85.4842 1.75323 84.757 1.47236 84.369 0.947493C83.4261 1.0156 82.3872 1.00534 81.4563 1.15402C81.1354 1.20483 81.3599 1.54821 81.3203 1.58758C80.7361 2.20382 80.2869 1.40569 80.0774 1.38118C77.8263 1.15048 76.0246 1.83054 73.8627 1.30313C73.7861 1.28409 73.6358 0.446418 73.0836 1.08115C73.0478 1.12483 73.7712 1.4831 72.7607 1.54802C71.7599 1.61266 69.8788 2.13003 68.4648 1.78859C68.1266 1.70632 67.2454 1.05267 66.5769 1.61053C66.4885 1.68621 66.5964 1.92421 66.4697 2.06314C66.0595 2.50604 65.7974 1.66316 65.3201 2.40355C64.8388 3.14404 63.8217 3.72142 62.3933 3.27167C62.348 3.25873 61.9919 2.59583 61.5489 2.6219C60.8399 2.66416 59.8444 2.83944 59.1043 2.86078C58.7502 2.87075 58.9622 2.44405 58.9005 2.43853C56.5162 2.28651 54.836 2.71885 52.2957 2.9699C51.8285 3.0168 50.4699 2.49255 49.5799 2.97586C48.605 3.50498 49.7003 5.52504 47.399 5.11557C46.4756 4.95192 45.2205 2.38444 43.6093 3.79474C40.3942 3.57355 37.4504 4.37154 34.218 4.011C34.0711 3.99516 33.5999 3.28347 33.2509 3.30623C32.7422 3.34109 32.4796 3.69149 32.1244 3.72707C30.6043 3.88597 29.2381 3.64566 27.7676 3.74715C27.4459 3.76913 27.3862 3.89717 27.2592 4.00804C27.1675 4.08785 27.0408 4.15999 26.7663 4.18443C26.0948 4.24385 25.6692 3.8049 24.7634 4.08494C24.1023 4.29675 23.4872 5.28461 22.6047 5.45233C22.5177 4.5215 21.8905 4.5807 20.7947 4.40736C20.5864 4.37348 20.7843 4.03403 20.6846 4.00127C20.2762 3.86089 19.9015 4.15695 19.513 4.0012C19.4178 3.96393 19.3912 3.64583 19.3124 3.59739C18.6254 3.17415 17.6269 3.96758 17.4384 4.10737C16.7593 4.63459 16.4222 4.24455 15.8834 4.4749C15.3627 4.7042 16.1797 4.87296 15.567 5.03612C14.2827 5.37499 12.6145 5.47076 11.3065 5.6222C10.7734 5.68197 11.0926 5.22014 11.0153 5.21884C9.91315 5.22564 8.87933 5.81092 8.16357 5.0545C7.71216 7.33957 7.48022 4.91909 5.98541 5.63667C5.86942 5.69563 5.92853 6.73981 6.39801 6.806C6.87128 6.87182 7.52478 6.43645 8.18954 6.583C8.35379 6.61437 9.34277 7.465 9.46069 7.51104C10.4363 7.8554 10.394 6.30381 10.4383 6.21229C10.8879 5.2358 12.0887 6.16735 12.3757 6.21319C13.7051 6.41829 14.7813 6.1086 15.8867 6.25705C16.6162 6.35236 16.7615 7.36022 17.312 7.28691C19.1514 7.04566 19.7192 5.58641 21.5443 6.69508C21.9324 6.93215 21.6615 8.06179 22.9256 7.10501C23.0002 7.04492 23.9732 6.18257 24.5662 6.65207C24.6425 6.71115 24.6602 7.03423 24.7576 7.05543C25.4169 7.19083 25.8272 6.90759 26.5288 6.9892C26.8102 7.02156 27.1181 7.06207 27.4411 7.08909L27.3776 7.09218C27.8413 7.144 28.3403 7.16542 28.8312 7.0807C29.3023 6.99717 29.8998 6.37144 30.1302 6.21512C30.7711 5.76562 31.4849 6.43663 31.881 5.90676C32.2723 5.37448 31.4489 4.61859 32.4962 4.24531C32.5666 5.0839 32.6891 5.94278 32.7838 6.78524C35.1271 6.6692 37.4246 6.31401 39.7794 6.26675C40.0708 6.26175 39.7889 6.72406 40.1022 6.73034C41.4305 6.75462 42.5706 6.39165 43.9381 6.47152C45.0083 6.53467 46.179 6.97209 47.2918 7.05351C47.9337 6.06839 49.5874 6.33699 50.7815 6.20721C51.1976 6.16224 51.1608 5.90647 51.4549 5.8123C52.566 5.46326 52.0702 6.33116 52.3827 6.45408C53.7229 6.9785 53.768 5.05175 55.3261 5.04497C55.4086 5.04396 56.452 6.03379 56.593 6.09278C57.4895 6.47826 56.7266 5.73095 57.276 5.63599C58.2791 5.46251 58.9707 5.19338 60.1637 5.45247C60.5107 5.52944 61.3611 6.13949 62.0135 5.62209C62.0993 5.55432 62.0389 5.21723 62.109 5.19493C63.3764 4.81978 63.4535 5.88289 64.1975 6.218C64.9389 6.55313 66.0533 5.77868 66.274 5.55897C66.8566 4.99017 65.8048 5.34084 65.7695 5.28823C65.3631 4.66174 66.1951 4.74313 66.8204 4.66726C66.8755 3.62033 67.7642 3.65217 67.4755 4.59259C67.443 4.69534 66.9453 4.61518 66.8204 4.66726C67.4156 5.67189 68.382 5.76962 69.426 4.77517C69.9128 4.30916 69.4211 3.8027 70.9482 3.94108C71.6465 4.00322 71.4035 4.73124 72.02 4.90593C73.4274 5.30448 75.2226 4.57056 76.6586 4.62596C77.1852 4.64589 76.6878 5.05722 77.0474 5.08442C77.99 5.15823 78.831 4.83312 79.7717 4.95131C79.8583 4.96247 79.6597 5.38179 79.9597 5.37646C82.0517 5.34735 83.8973 5.05339 86.0347 4.94052C86.1859 4.93261 86.3374 4.92559 86.4891 4.91961C87.6051 4.87581 89.6442 5.02848 90.8115 4.94108C92.8266 4.79159 95.2959 4.10929 97.0211 4.21048C98.1442 4.27477 97.9092 4.69365 98.3948 4.96312C99.3307 5.48514 100.946 4.48378 101.167 4.33053C101.173 4.32516 100.211 4.2428 100.72 4.02333C101.012 3.578 101.157 4.32879 101.167 4.33053C101.315 4.22954 103.231 4.11553 103.623 4.19333C103.828 4.23508 103.716 4.62628 103.823 4.6407C106.404 4.97493 108.994 5.0867 111.605 4.92857C111.651 4.92111 111.586 4.4837 111.695 4.47163C113.229 4.2923 114.178 4.83837 115.442 5.17213C116.676 5.50558 117.694 5.41451 118.436 4.67585C119.412 4.78502 120.74 4.47491 121.543 4.28717C122.314 4.09889 122.416 4.95107 122.484 4.969C124.636 5.54392 125.854 5.07914 128.118 5.04521C128.693 5.03499 129.6 5.081 130.52 5.14438C131.21 5.19396 131.903 5.25437 132.417 5.30544C133.352 5.39836 133.865 5.20903 134.706 5.35288C134.819 5.3721 134.697 5.74836 134.731 5.76361C135.662 6.23482 135.23 5.30073 135.427 5.13929C136.163 4.55256 136.563 4.24021 137.761 4.54678C138.032 4.61689 138.839 5.96575 139.321 6.05332C139.965 6.1651 139.73 5.68265 140.41 5.81201C140.469 5.82265 140.45 6.11699 140.875 6.11253C142.845 6.09568 144.989 5.96772 147.015 6.03876C147.294 6.04739 146.926 6.50732 147.33 6.52749C149.219 6.62162 151.302 6.64735 153.127 6.46642C153.58 6.42051 153.303 6.08744 153.404 5.99234C154.019 5.41706 154.864 6.28908 155.006 6.30833C158.343 6.78848 160.966 6.07032 164.372 6.51035C164.558 6.53589 165.984 7.48197 166.636 6.71021C166.681 6.65889 167.331 5.86893 167.881 6.43011C167.915 6.46521 167.51 6.8704 168.203 6.84289C168.898 6.81554 169.999 7.11521 170.956 6.68093C171.259 6.54416 171.986 5.75786 172.872 6.4158C172.931 6.46166 174.278 7.93541 174.793 6.94936C174.877 6.78702 174.815 5.7306 175.874 6.29413C176.076 6.40332 175.7 6.63064 176.236 6.78902C177.058 7.03304 178.152 6.77377 179.157 7.26524C179.332 7.35218 180.071 8.0841 180.685 7.55368C180.782 7.47061 180.61 7.1147 180.929 7.0821C182.447 6.92544 184.032 7.19495 185.575 6.98426C186.122 6.91033 185.856 6.33518 186.427 6.19481C186.999 6.0545 188.146 5.93232 188.736 6.20517C189.326 6.47813 188.656 7.37135 189.546 7.46303C193.413 7.86124 197.26 7.41128 201.133 7.41625C201.706 7.41688 201.225 7.73134 202.068 7.75553C205.189 7.84647 210.564 8.26563 213.277 7.63319C215.464 7.12693 212.732 6.64813 214.403 6.4587C215.209 6.36852 216.047 7.44142 216.238 7.47869C218.114 7.85585 219.432 7.4163 221.129 7.59546C221.481 7.63264 221.126 8.05282 221.426 8.07972C222.455 8.17555 223.492 8.00646 224.488 8.06225C224.927 8.0881 224.84 8.41289 225.243 8.39611C226.207 8.35973 227.042 8.23986 228.001 7.9537C228.087 7.9276 227.517 7.50942 228.232 7.50919C229.379 7.50976 230.82 7.23763 232.135 7.5766C232.526 7.67847 232.513 8.42469 233.375 7.92686C233.556 7.8229 233.349 6.92233 234.324 7.71678C234.496 7.84902 236.091 8.92626 236.943 8.27011C237.162 8.09734 237.724 7.37522 238.187 7.49983C238.25 7.51949 237.989 7.91519 238.374 7.96206C238.497 7.9764 238.62 7.98931 238.743 8.00104C240.047 8.12019 241.304 8.12023 242.622 8.26049C242.999 8.30227 242.429 8.70592 242.99 8.75491C244.522 8.89005 246.478 8.82259 247.994 8.72207C248.546 8.68408 248.172 8.33314 248.213 8.29653C248.865 7.7008 249.261 8.52957 249.473 8.58154C250.799 8.89383 251.859 8.52844 253.091 8.65416C253.439 8.68796 253.184 9.07461 253.253 9.11084C253.96 9.46553 253.443 8.75246 253.893 8.6836C255.138 8.48802 256.551 8.54662 257.824 8.62135C258.285 8.64925 257.759 9.09302 258.171 9.1128C260.639 9.23901 263.236 9.24704 265.651 9.04879C266.104 9.01062 265.827 8.65504 265.923 8.57726C266.588 8.03294 267.528 8.81605 267.746 8.89365C268.746 9.24794 269.137 8.94803 270.019 9.02717C274.327 9.41648 279.649 9.38148 283.718 9.41834C286.233 9.44026 288.497 9.42237 290.713 9.43027C293.163 9.43899 295.572 9.48233 298.235 9.65747C298.555 9.67815 298.209 10.1268 298.485 10.1506C302.071 10.438 305.607 10.4353 309.201 10.7541C309.496 10.7795 309.047 11.1978 309.521 11.2534C310.484 11.37 311.724 11.4099 312.709 11.3199C313.192 11.2769 312.569 10.8659 313.055 10.8304C314.189 10.7471 315.391 10.778 316.542 10.9085C317.032 10.9649 316.268 11.3767 316.905 11.415C321.254 11.6855 325.518 11.9854 329.95 11.628C330.254 11.6034 330.562 10.7018 331.195 10.9101C331.231 11.1665 331.213 11.4651 331.22 11.7376C337.551 12.2069 343.845 12.2048 350.209 12.4366C350.477 12.4464 349.987 12.9109 350.515 12.9327C351.534 12.9748 352.547 13.0315 353.535 13.0726C355.523 13.1552 357.489 13.1858 359.536 12.9465C359.845 12.9115 359.73 12.0523 360.611 12.2162C360.757 12.2456 362.131 12.4134 362.456 12.6115C362.503 12.6413 362.236 13.0299 362.681 13.0587C365.22 13.2177 367.879 13.2269 370.414 13.0737C370.83 13.0484 370.405 12.6084 370.7 12.5867C372.759 12.4344 375 12.8335 376.999 12.5068C378.322 12.2854 377.865 11.538 378.583 10.8346C378.688 10.7357 379.5 10.7387 379.559 10.3191C379.69 9.26481 379.313 8.09932 379.505 6.97673C379.532 6.85596 379.794 6.86635 379.988 6.83102C380.077 6.8133 380.151 6.78392 380.135 6.72203C380.142 6.66021 380.135 6.56714 379.979 6.41812C379.942 6.37914 379.174 6.16813 378.983 5.96394C378.854 5.8232 379.1 5.40178 378.84 5.21917C378.561 5.03615 378.268 5.38684 377.808 5.16696C377.365 4.94473 377.577 4.46484 376.668 4.37992ZM125.079 3.4491C125.827 3.05409 125.91 4.55131 125.115 4.17922C125.077 4.15946 125.041 3.46845 125.079 3.4491ZM37.3744 5.18738C38.2908 4.49424 38.9843 5.43985 38.3292 5.97317C37.6766 6.50587 37.0962 5.39752 37.3744 5.18738ZM27.5211 5.07041C28.6014 4.50868 28.8601 6.62104 27.6602 6.23781C27.5912 6.21621 27.4587 5.10302 27.5211 5.07041ZM375.333 10.5332C375.334 10.5134 375.94 10.5132 375.946 10.5331C376.246 11.0177 375.064 11.0188 375.333 10.5332ZM17.7795 5.17625C18.0862 4.86545 19.1162 5.12335 18.7084 5.51036C18.3793 5.82143 17.3759 5.56408 17.7795 5.17625ZM162.98 2.61296C162.992 2.59092 163.412 2.5797 163.401 2.70547C163.364 3.11049 162.783 2.98371 162.98 2.61296ZM1.59943 7.82854C1.81592 7.75332 2.01895 7.6613 2.20474 7.55767L2.2251 7.54943C3.90735 6.49829 4.6311 4.80296 2.21207 5.84665C1.75745 6.06253 3.43124 5.97569 2.88647 6.35244C2.54962 6.58549 2.20584 6.65877 1.85635 6.69501L1.87543 6.68729C1.23651 6.71567 0.654388 6.52231 0.013855 7.07248C-0.165161 7.22983 1.4411 7.9032 1.60449 7.82951C1.60281 7.82919 1.60114 7.82886 1.59943 7.82854ZM125.538 1.66075C125.562 1.6414 126.128 1.63284 126.142 1.65273C126.445 2.13302 125.288 2.15023 125.538 1.66075ZM187.561 2.21121C187.593 2.16976 188.947 2.15933 188.99 2.19909C189.679 2.9904 186.943 3.01381 187.561 2.21121ZM86.2769 0.812067C86.148 0.723378 86.0139 0.650965 85.8774 0.596474C85.3456 0.370938 84.7668 0.449684 84.3718 0.946781C84.882 0.903024 85.3942 0.876444 85.8863 0.841416C86.0175 0.832322 86.1477 0.82268 86.2769 0.812067Z" fill="#DC4D2F"/>
</svg>
